<svg width="424" height="223" viewBox="0 0 424 223" fill="none" xmlns="http://www.w3.org/2000/svg">
<path fill-rule="evenodd" clip-rule="evenodd" d="M424 51.6012C424 23.1026 400.897 0 372.399 0H354.185C335.746 0 320.798 14.9479 320.798 33.387V33.387C320.798 51.8261 305.85 66.774 287.411 66.774H45.3559C20.3065 66.774 0 87.0805 0 112.13V112.13C0 137.179 20.3065 157.486 45.3559 157.486H288.041C306.132 157.486 320.798 172.152 320.798 190.243V190.243C320.798 208.334 335.463 223 353.555 223H372.399C400.897 223 424 199.897 424 171.399V51.6012Z" fill="white"/>
</svg>
