<svg width="30" height="30" viewBox="0 0 30 30" fill="none" xmlns="http://www.w3.org/2000/svg">
<g id="vuesax/bold/profile-2user">
<g id="vuesax/bold/profile-2user_2">
<g id="profile-2user">
<path id="Vector" d="M11.25 2.5C7.975 2.5 5.3125 5.1625 5.3125 8.4375C5.3125 11.65 7.825 14.25 11.1 14.3625C11.2 14.35 11.3 14.35 11.375 14.3625C11.4 14.3625 11.4125 14.3625 11.4375 14.3625C11.45 14.3625 11.45 14.3625 11.4625 14.3625C14.6625 14.25 17.175 11.65 17.1875 8.4375C17.1875 5.1625 14.525 2.5 11.25 2.5Z" fill="white"/>
<path id="Vector_2" d="M17.6 17.6871C14.1125 15.3621 8.42495 15.3621 4.91245 17.6871C3.32495 18.7496 2.44995 20.1871 2.44995 21.7246C2.44995 23.2621 3.32495 24.6871 4.89995 25.7371C6.64995 26.9121 8.94995 27.4996 11.25 27.4996C13.55 27.4996 15.85 26.9121 17.6 25.7371C19.175 24.6746 20.05 23.2496 20.05 21.6996C20.0375 20.1621 19.175 18.7371 17.6 17.6871Z" fill="white"/>
<path id="Vector_3" d="M24.9875 9.17464C25.1875 11.5996 23.4625 13.7246 21.075 14.0121C21.0625 14.0121 21.0625 14.0121 21.05 14.0121H21.0125C20.9375 14.0121 20.8625 14.0121 20.8 14.0371C19.5875 14.0996 18.475 13.7121 17.6375 12.9996C18.925 11.8496 19.6625 10.1246 19.5125 8.24964C19.425 7.23714 19.075 6.31214 18.55 5.52464C19.025 5.28714 19.575 5.13714 20.1375 5.08714C22.5875 4.87464 24.775 6.69964 24.9875 9.17464Z" fill="white"/>
<path id="Vector_4" d="M27.4875 20.737C27.3875 21.9495 26.6125 22.9995 25.3126 23.712C24.0625 24.3995 22.4875 24.7245 20.925 24.687C21.825 23.8745 22.35 22.862 22.45 21.787C22.575 20.237 21.8376 18.7495 20.3626 17.562C19.5251 16.8995 18.55 16.3745 17.4875 15.987C20.25 15.187 23.7251 15.7245 25.8626 17.4495C27.0126 18.3745 27.6 19.537 27.4875 20.737Z" fill="white"/>
</g>
</g>
</g>
</svg>
