<svg width="40" height="40" viewBox="0 0 40 40" fill="none" xmlns="http://www.w3.org/2000/svg">
<g id="vuesax/bold/activity">
<g id="activity">
<path id="Vector" d="M26.9834 3.33334H13.0167C6.95004 3.33334 3.33337 6.95001 3.33337 13.0167V26.9667C3.33337 33.05 6.95004 36.6667 13.0167 36.6667H26.9667C33.0334 36.6667 36.65 33.05 36.65 26.9833V13.0167C36.6667 6.95001 33.05 3.33334 26.9834 3.33334ZM28.7667 16.6L24.9167 21.5667C24.4334 22.1833 23.75 22.5833 22.9667 22.6667C22.1834 22.7667 21.4167 22.55 20.8 22.0667L17.75 19.6667C17.6334 19.5667 17.5 19.5667 17.4334 19.5833C17.3667 19.5833 17.25 19.6167 17.15 19.75L13.1834 24.9C12.9334 25.2167 12.5667 25.3833 12.2 25.3833C11.9334 25.3833 11.6667 25.3 11.4334 25.1167C10.8834 24.7 10.7834 23.9167 11.2 23.3667L15.1667 18.2167C15.65 17.6 16.3334 17.2 17.1167 17.1C17.8834 17 18.6667 17.2167 19.2834 17.7L22.3334 20.1C22.45 20.2 22.5667 20.2 22.65 20.1833C22.7167 20.1833 22.8334 20.15 22.9334 20.0167L26.7834 15.05C27.2 14.5 28 14.4 28.5334 14.8333C29.0834 15.2833 29.1834 16.0667 28.7667 16.6Z" fill="#FFFEFE"/>
</g>
</g>
</svg>
