<svg width="35" height="30" viewBox="0 0 35 30" fill="none" xmlns="http://www.w3.org/2000/svg">
<g id="caseworker filled">
<path id="Shape" fill-rule="evenodd" clip-rule="evenodd" d="M24.7918 6.5625C24.7918 10.1869 21.3639 13.125 17.1355 13.125C12.9071 13.125 9.47927 10.1869 9.47927 6.5625C9.47927 2.93813 12.9071 0 17.1355 0C21.3639 0 24.7918 2.93813 24.7918 6.5625ZM17.0069 14.5139C11.0558 14.5139 6.23145 18.649 6.23145 23.75H21.0537L26.3775 19.1868C24.5237 16.3959 21.0217 14.5139 17.0069 14.5139ZM32.5907 20.8152C31.3225 19.7283 29.2664 19.7283 27.9983 20.8152L22.4679 25.5556L21.8752 30L27.0602 29.4919L32.5907 24.7516C33.8588 23.6646 33.8588 21.9022 32.5907 20.8152Z" fill="#386641"/>
</g>
</svg>
