<svg width="36" height="37" viewBox="0 0 36 37" fill="none" xmlns="http://www.w3.org/2000/svg">
<g id="element-plus">
<path id="Vector" d="M30.7502 25.624H27.3752V22.249C27.3752 21.634 26.8652 21.124 26.2502 21.124C25.6352 21.124 25.1252 21.634 25.1252 22.249V25.624H21.7502C21.1352 25.624 20.6252 26.134 20.6252 26.749C20.6252 27.364 21.1352 27.874 21.7502 27.874H25.1252V31.249C25.1252 31.864 25.6352 32.374 26.2502 32.374C26.8652 32.374 27.3752 31.864 27.3752 31.249V27.874H30.7502C31.3652 27.874 31.8752 27.364 31.8752 26.749C31.8752 26.134 31.3652 25.624 30.7502 25.624Z" fill="white"/>
<path id="Vector_2" opacity="0.4" d="M33 13.281V6.47098C33 4.35598 32.04 3.50098 29.655 3.50098H23.595C21.21 3.50098 20.25 4.35598 20.25 6.47098V13.266C20.25 15.396 21.21 16.236 23.595 16.236H29.655C32.04 16.251 33 15.396 33 13.281Z" fill="white"/>
<path id="Vector_3" d="M15.7498 13.281V6.47098C15.7498 4.35598 14.7898 3.50098 12.4048 3.50098H6.34476C3.95976 3.50098 2.99976 4.35598 2.99976 6.47098V13.266C2.99976 15.396 3.95976 16.236 6.34476 16.236H12.4048C14.7898 16.251 15.7498 15.396 15.7498 13.281Z" fill="white"/>
<path id="Vector_4" opacity="0.4" d="M15.7498 30.155V24.095C15.7498 21.71 14.7898 20.75 12.4048 20.75H6.34476C3.95976 20.75 2.99976 21.71 2.99976 24.095V30.155C2.99976 32.54 3.95976 33.5 6.34476 33.5H12.4048C14.7898 33.5 15.7498 32.54 15.7498 30.155Z" fill="white"/>
</g>
</svg>
