<svg width="17" height="16" viewBox="0 0 17 16" fill="none" xmlns="http://www.w3.org/2000/svg">
<g id="error-colored">
<path id="shape" fill-rule="evenodd" clip-rule="evenodd" d="M0.673844 7.98398C0.682192 3.58121 4.27036 0 8.67313 0C13.1003 0.00834781 16.6822 3.60417 16.6738 8.01459C16.6648 12.4181 13.0759 16 8.67383 16H8.65852C6.52148 15.9958 4.51384 15.1596 3.00567 13.6459C1.49749 12.1315 0.66967 10.121 0.673844 7.98398ZM12.0071 5.61904L11.0548 4.66666L8.67381 7.04799L6.29287 4.66666L5.34049 5.61904L7.72182 7.99999L5.34049 10.3809L6.29287 11.3333L8.67381 8.95198L11.0548 11.3333L12.0071 10.3809L9.62581 7.99999L12.0071 5.61904Z" fill="#C30000"/>
</g>
</svg>
