<svg width="24" height="24" viewBox="0 0 24 24" fill="none" xmlns="http://www.w3.org/2000/svg">
<g id="vuesax/linear/filter-search">
<g id="vuesax/linear/filter-search_2">
<g id="filter-search">
<g id="Group">
<path id="Vector" d="M14.32 19.07C14.32 19.68 13.92 20.48 13.41 20.79L12 21.7C10.69 22.51 8.87 21.6 8.87 19.98V14.63C8.87 13.92 8.47 13.01 8.06 12.51L4.21997 8.47C3.70997 7.96 3.31 7.06001 3.31 6.45001V4.13C3.31 2.92 4.22002 2.01001 5.33002 2.01001H18.67C19.78 2.01001 20.69 2.92 20.69 4.03V6.25C20.69 7.06 20.18 8.07001 19.68 8.57001" stroke="#64966E" stroke-width="1.5" stroke-miterlimit="10" stroke-linecap="round" stroke-linejoin="round"/>
</g>
<g id="Group_2">
<path id="Vector_2" d="M16.07 16.52C17.8373 16.52 19.27 15.0873 19.27 13.32C19.27 11.5527 17.8373 10.12 16.07 10.12C14.3027 10.12 12.87 11.5527 12.87 13.32C12.87 15.0873 14.3027 16.52 16.07 16.52Z" stroke="#64966E" stroke-width="1.5" stroke-linecap="round" stroke-linejoin="round"/>
<path id="Vector_3" d="M19.87 17.12L18.87 16.12" stroke="#64966E" stroke-width="1.5" stroke-linecap="round" stroke-linejoin="round"/>
</g>
</g>
</g>
</g>
</svg>
