<svg width="78" height="78" viewBox="0 0 78 78" fill="none" xmlns="http://www.w3.org/2000/svg">
<g id="Frame 16">
<rect id="Rectangle 9" x="0.5" y="0.5" width="77" height="77" rx="38.5" fill="#FF8F19" stroke="#E6E5EA"/>
<g id="element-plus">
<path id="Vector" d="M48.9145 43.7826H46.6601V41.5282C46.6601 41.1174 46.3194 40.7767 45.9086 40.7767C45.4978 40.7767 45.1572 41.1174 45.1572 41.5282V43.7826H42.9028C42.492 43.7826 42.1513 44.1232 42.1513 44.534C42.1513 44.9448 42.492 45.2855 42.9028 45.2855H45.1572V47.5399C45.1572 47.9507 45.4978 48.2913 45.9086 48.2913C46.3194 48.2913 46.6601 47.9507 46.6601 47.5399V45.2855H48.9145C49.3253 45.2855 49.6659 44.9448 49.6659 44.534C49.6659 44.1232 49.3253 43.7826 48.9145 43.7826Z" fill="white"/>
<path id="Vector_2" opacity="0.4" d="M50.4174 35.5366V30.9877C50.4174 29.575 49.7761 29.0039 48.183 29.0039H44.1352C42.5421 29.0039 41.9008 29.575 41.9008 30.9877V35.5266C41.9008 36.9493 42.5421 37.5104 44.1352 37.5104H48.183C49.7761 37.5204 50.4174 36.9493 50.4174 35.5366Z" fill="white"/>
<path id="Vector_3" d="M38.895 35.5366V30.9877C38.895 29.575 38.2537 29.0039 36.6606 29.0039H32.6128C31.0197 29.0039 30.3784 29.575 30.3784 30.9877V35.5266C30.3784 36.9493 31.0197 37.5104 32.6128 37.5104H36.6606C38.2537 37.5204 38.895 36.9493 38.895 35.5366Z" fill="white"/>
<path id="Vector_4" opacity="0.4" d="M38.895 46.8085V42.7606C38.895 41.1675 38.2537 40.5263 36.6606 40.5263H32.6128C31.0197 40.5263 30.3784 41.1675 30.3784 42.7606V46.8085C30.3784 48.4016 31.0197 49.0428 32.6128 49.0428H36.6606C38.2537 49.0428 38.895 48.4016 38.895 46.8085Z" fill="white"/>
</g>
</g>
</svg>
