<svg width="35" height="35" viewBox="0 0 35 35" fill="none" xmlns="http://www.w3.org/2000/svg">
<g id="vuesax/linear/grid-edit">
<g id="grid-edit">
<g id="Group">
<path id="Vector" d="M32.0834 16.041V13.1243C32.0834 5.83268 29.1667 2.91602 21.8751 2.91602H13.1251C5.83341 2.91602 2.91675 5.83268 2.91675 13.1243V21.8743C2.91675 29.166 5.83341 32.0827 13.1251 32.0827H14.5834" stroke="#386641" stroke-width="1.5" stroke-linecap="round" stroke-linejoin="round"/>
<g id="Group_2">
<path id="Vector_2" d="M2.96045 12.3945H32.0833" stroke="#386641" stroke-width="1.5" stroke-linecap="round" stroke-linejoin="round"/>
<path id="Vector_3" d="M2.96045 22.6035H17.5" stroke="#386641" stroke-width="1.5" stroke-linecap="round" stroke-linejoin="round"/>
</g>
<g id="Group_3">
<path id="Vector_4" d="M12.4104 32.0672V2.92969" stroke="#386641" stroke-width="1.5" stroke-linecap="round" stroke-linejoin="round"/>
<path id="Vector_5" d="M22.6187 17.4838V2.92969" stroke="#386641" stroke-width="1.5" stroke-linecap="round" stroke-linejoin="round"/>
</g>
</g>
<g id="Group_4">
<path id="Vector_6" d="M27.3146 21.3946L21.2626 27.4466C21.0292 27.6799 20.8104 28.1321 20.7521 28.4529L20.4167 30.7716C20.3 31.6029 20.8834 32.2008 21.7146 32.0696L24.0333 31.7342C24.3542 31.6904 24.8063 31.4571 25.0396 31.2238L31.0917 25.1717C32.1271 24.1363 32.623 22.9113 31.0917 21.38C29.5751 19.8634 28.3646 20.3446 27.3146 21.3946Z" stroke="#386641" stroke-width="1.5" stroke-miterlimit="10" stroke-linecap="round" stroke-linejoin="round"/>
<path id="Vector_7" d="M26.4543 22.2559C26.9648 24.0934 28.4085 25.5225 30.246 26.0475" stroke="#386641" stroke-width="1.5" stroke-miterlimit="10" stroke-linecap="round" stroke-linejoin="round"/>
</g>
</g>
</g>
</svg>
