<svg width="30" height="30" viewBox="0 0 30 30" fill="none" xmlns="http://www.w3.org/2000/svg">
<g id="vuesax/bold/home">
<g id="home">
<path id="Vector" d="M26.0751 10.4623L17.4126 3.53731C16.0751 2.46231 13.9126 2.46231 12.5876 3.52481L3.92509 10.4623C2.95009 11.2373 2.32509 12.8748 2.53759 14.0998L4.20009 24.0498C4.50009 25.8248 6.20009 27.2623 8.00009 27.2623H22.0001C23.7876 27.2623 25.5001 25.8123 25.8001 24.0498L27.4626 14.0998C27.6626 12.8748 27.0376 11.2373 26.0751 10.4623ZM15.0001 19.3748C13.2751 19.3748 11.8751 17.9748 11.8751 16.2498C11.8751 14.5248 13.2751 13.1248 15.0001 13.1248C16.7251 13.1248 18.1251 14.5248 18.1251 16.2498C18.1251 17.9748 16.7251 19.3748 15.0001 19.3748Z" fill="white"/>
</g>
</g>
</svg>
