<svg width="17" height="16" viewBox="0 0 17 16" fill="none" xmlns="http://www.w3.org/2000/svg">
<g id="information-colored">
<path id="shape" fill-rule="evenodd" clip-rule="evenodd" d="M0.0493164 8C0.0493164 3.58817 3.63749 0 8.04932 0C12.4604 0 16.0493 3.58817 16.0493 8C16.0493 12.4118 12.4604 16 8.04932 16C3.63749 16 0.0493164 12.4118 0.0493164 8ZM8.04932 3.33333C8.6016 3.33333 9.04932 3.78105 9.04932 4.33333C9.04932 4.88562 8.6016 5.33333 8.04932 5.33333C7.49703 5.33333 7.04932 4.88562 7.04932 4.33333C7.04932 3.78105 7.49703 3.33333 8.04932 3.33333ZM6.04932 12.6667V11.3333H7.38265V8H6.04932V6.66667H8.71598V11.3333H10.0493V12.6667H6.04932Z" fill="#FF8F19"/>
</g>
</svg>
