<svg width="30" height="30" viewBox="0 0 30 30" fill="none" xmlns="http://www.w3.org/2000/svg">
<g id="Meeting room">
<path id="Shape" fill-rule="evenodd" clip-rule="evenodd" d="M5 3.75C4.30964 3.75 3.75 4.30964 3.75 5H1.25C1.25 2.92893 2.92893 1.25 5 1.25C7.07107 1.25 8.75 2.92893 8.75 5H6.25C6.25 4.30964 5.69036 3.75 5 3.75ZM5 26.25C4.30964 26.25 3.75 25.6904 3.75 25H1.25C1.25 27.0711 2.92893 28.75 5 28.75C7.07107 28.75 8.75 27.0711 8.75 25H6.25C6.25 25.6904 5.69036 26.25 5 26.25ZM13.75 5C13.75 4.30964 14.3096 3.75 15 3.75C15.6904 3.75 16.25 4.30964 16.25 5H18.75C18.75 2.92893 17.0711 1.25 15 1.25C12.9289 1.25 11.25 2.92893 11.25 5H13.75ZM15 26.25C14.3096 26.25 13.75 25.6904 13.75 25H11.25C11.25 27.0711 12.9289 28.75 15 28.75C17.0711 28.75 18.75 27.0711 18.75 25H16.25C16.25 25.6904 15.6904 26.25 15 26.25ZM23.75 5C23.75 4.30964 24.3096 3.75 25 3.75C25.6904 3.75 26.25 4.30964 26.25 5H28.75C28.75 2.92893 27.0711 1.25 25 1.25C22.9289 1.25 21.25 2.92893 21.25 5H23.75ZM25 26.25C24.3096 26.25 23.75 25.6904 23.75 25H21.25C21.25 27.0711 22.9289 28.75 25 28.75C27.0711 28.75 28.75 27.0711 28.75 25H26.25C26.25 25.6904 25.6904 26.25 25 26.25ZM2.5 20V10H27.5V20H2.5ZM0 8.75C0 8.05964 0.559644 7.5 1.25 7.5H28.75C29.4404 7.5 30 8.05964 30 8.75V21.25C30 21.9404 29.4404 22.5 28.75 22.5H1.25C0.559645 22.5 0 21.9404 0 21.25V8.75Z" fill="#386641"/>
</g>
</svg>
