<svg width="40" height="40" viewBox="0 0 40 40" fill="none" xmlns="http://www.w3.org/2000/svg">
<g id="vuesax/bold/note-text">
<g id="note-text">
<g id="Group">
<path id="Vector" d="M14.5833 5.83301V3.33301C14.5833 2.64967 14.0166 2.08301 13.3333 2.08301C12.6499 2.08301 12.0833 2.64967 12.0833 3.33301V5.93301C12.4999 5.88301 12.8833 5.83301 13.3333 5.83301H14.5833Z" fill="white"/>
<path id="Vector_2" d="M27.9167 5.93301V3.33301C27.9167 2.64967 27.3501 2.08301 26.6667 2.08301C25.9834 2.08301 25.4167 2.64967 25.4167 3.33301V5.83301H26.6667C27.1167 5.83301 27.5001 5.88301 27.9167 5.93301Z" fill="white"/>
<path id="Vector_3" d="M27.9167 5.93301V8.33301C27.9167 9.01634 27.35 9.58301 26.6667 9.58301C25.9833 9.58301 25.4167 9.01634 25.4167 8.33301V5.83301H14.5833V8.33301C14.5833 9.01634 14.0167 9.58301 13.3333 9.58301C12.65 9.58301 12.0833 9.01634 12.0833 8.33301V5.93301C7.16667 6.38301 5 9.54967 5 14.1663V28.333C5 33.333 7.5 36.6663 13.3333 36.6663H26.6667C32.5 36.6663 35 33.333 35 28.333V14.1663C35 9.54967 32.8333 6.38301 27.9167 5.93301ZM20 27.9163H13.3333C12.65 27.9163 12.0833 27.3497 12.0833 26.6663C12.0833 25.983 12.65 25.4163 13.3333 25.4163H20C20.6833 25.4163 21.25 25.983 21.25 26.6663C21.25 27.3497 20.6833 27.9163 20 27.9163ZM26.6667 19.583H13.3333C12.65 19.583 12.0833 19.0163 12.0833 18.333C12.0833 17.6497 12.65 17.083 13.3333 17.083H26.6667C27.35 17.083 27.9167 17.6497 27.9167 18.333C27.9167 19.0163 27.35 19.583 26.6667 19.583Z" fill="white"/>
</g>
</g>
</g>
</svg>
