<svg width="38" height="38" viewBox="0 0 38 38" fill="none" xmlns="http://www.w3.org/2000/svg">
<g id="vuesax/linear/notification">
<g id="notification">
<path id="Vector" d="M19.0317 4.60751C13.7908 4.60751 9.53165 8.86668 9.53165 14.1075V18.6833C9.53165 19.6492 9.11999 21.1217 8.62915 21.945L6.80832 24.9692C5.68415 26.8375 6.45999 28.9117 8.51832 29.6083C15.3425 31.8883 22.705 31.8883 29.5292 29.6083C31.445 28.975 32.2842 26.7108 31.2392 24.9692L29.4183 21.945C28.9433 21.1217 28.5317 19.6492 28.5317 18.6833V14.1075C28.5317 8.88251 24.2567 4.60751 19.0317 4.60751Z" stroke="#64966E" stroke-width="3" stroke-miterlimit="10" stroke-linecap="round"/>
<path id="Vector_2" d="M21.9608 5.06666C21.47 4.92416 20.9633 4.81332 20.4408 4.74999C18.9208 4.55999 17.4642 4.67082 16.1025 5.06666C16.5617 3.89499 17.7017 3.07166 19.0317 3.07166C20.3617 3.07166 21.5017 3.89499 21.9608 5.06666Z" stroke="#64966E" stroke-width="3" stroke-miterlimit="10" stroke-linecap="round" stroke-linejoin="round"/>
<path id="Vector_3" d="M23.7817 30.1783C23.7817 32.7908 21.6442 34.9283 19.0317 34.9283C17.7333 34.9283 16.53 34.39 15.675 33.535C14.82 32.68 14.2817 31.4767 14.2817 30.1783" stroke="#64966E" stroke-width="3" stroke-miterlimit="10"/>
</g>
</g>
</svg>
