<svg width="35" height="30" viewBox="0 0 35 30" fill="none" xmlns="http://www.w3.org/2000/svg">
<g id="vuesax/bold/people">
<g id="people">
<path id="Vector" d="M25.5645 9.7125C25.4624 9.7 25.3604 9.7 25.2583 9.7125C22.9979 9.65 21.2041 8.0625 21.2041 6.1125C21.2041 4.125 23.0854 2.5 25.4187 2.5C27.7374 2.5 29.6333 4.1125 29.6333 6.1125C29.6187 8.0625 27.8249 9.65 25.5645 9.7125Z" fill="#386641"/>
<path id="Vector_2" d="M30.3187 18.3745C28.6853 19.312 26.3958 19.662 24.2812 19.4245C24.8353 18.3995 25.127 17.262 25.1416 16.062C25.1416 14.812 24.8208 13.6245 24.2083 12.587C26.3666 12.337 28.6562 12.687 30.3041 13.6245C32.6083 14.9245 32.6083 17.062 30.3187 18.3745Z" fill="#386641"/>
<path id="Vector_3" d="M9.39157 9.7125C9.49365 9.7 9.59574 9.7 9.69782 9.7125C11.9582 9.65 13.752 8.0625 13.752 6.1125C13.752 4.1125 11.8707 2.5 9.5374 2.5C7.21865 2.5 5.3374 4.1125 5.3374 6.1125C5.3374 8.0625 7.13115 9.65 9.39157 9.7125Z" fill="#386641"/>
<path id="Vector_4" d="M9.55213 16.0623C9.55213 17.2748 9.85838 18.4248 10.4125 19.4623C8.3563 19.6498 6.21255 19.2748 4.63755 18.3873C2.33338 17.0748 2.33338 14.9373 4.63755 13.6248C6.19797 12.7248 8.40005 12.3623 10.4709 12.5623C9.87296 13.6123 9.55213 14.7998 9.55213 16.0623Z" fill="#386641"/>
<path id="Vector_5" d="M17.675 19.8375C17.5583 19.825 17.4271 19.825 17.2958 19.8375C14.6125 19.7625 12.4688 17.875 12.4688 15.55C12.4833 13.175 14.7146 11.25 17.5 11.25C20.2708 11.25 22.5167 13.175 22.5167 15.55C22.5021 17.875 20.3729 19.7625 17.675 19.8375Z" fill="#386641"/>
<path id="Vector_6" d="M12.9355 22.4248C10.7334 23.6873 10.7334 25.7623 12.9355 27.0123C15.4438 28.4498 19.5563 28.4498 22.0647 27.0123C24.2667 25.7498 24.2667 23.6748 22.0647 22.4248C19.5709 20.9873 15.4584 20.9873 12.9355 22.4248Z" fill="#386641"/>
</g>
</g>
</svg>
