<svg width="30" height="30" viewBox="0 0 30 30" fill="none" xmlns="http://www.w3.org/2000/svg">
<g id="plane-filled">
<path id="Shape" fill-rule="evenodd" clip-rule="evenodd" d="M6.86685 0.376544L16.51 6.41682L22.5226 4.67061C24.8586 3.99184 27.4128 4.74365 29.2452 6.64941C30.1731 7.61441 30.2571 9.18659 29.4328 10.161C29.164 10.4786 28.8186 10.7055 28.4329 10.8175L10.6404 15.9872C8.34312 16.6547 5.9359 16.0162 4.09606 14.4607L1.45151 15.2279L0.766047 12.8057L2.30954 12.3581C2.21162 12.1963 2.11819 12.0302 2.02953 11.8601L0 7.28254L3.14094 6.36992C3.86256 6.16025 4.65097 6.36921 5.24195 6.92677L8.20222 8.83145L8.5559 8.72752L2.24598 1.76633L4.1529 0.441559C4.96506 -0.122663 6.02928 -0.148157 6.86685 0.376544ZM27.4114 30C27.4698 29.5917 27.5 29.1744 27.5 28.75C27.5 23.9175 23.5825 20 18.75 20C16.399 20 14.2645 20.9272 12.6924 22.4359C15.3895 23.9434 17.2652 26.7448 17.4795 30H27.4114ZM1.25012 30H15.0001C14.683 26.4959 11.7261 23.75 8.12511 23.75C4.52416 23.75 1.56718 26.4959 1.25012 30Z" fill="#386641"/>
</g>
</svg>
