<svg width="35" height="30" viewBox="0 0 35 30" fill="none" xmlns="http://www.w3.org/2000/svg">
<g id="Table">
<path id="Shape" fill-rule="evenodd" clip-rule="evenodd" d="M5.5313 4.74112C6.27166 4.10652 7.27582 3.75 8.32287 3.75H26.6771C27.724 3.75 28.7284 4.10648 29.4688 4.74117C30.2089 5.37569 30.625 6.23635 30.625 7.13389V22.8661C30.625 23.7635 30.209 24.6243 29.4687 25.2589C28.7284 25.8934 27.7241 26.25 26.6771 26.25H8.32287C7.27574 26.25 6.27164 25.8934 5.53137 25.2589C4.7909 24.6243 4.375 23.7635 4.375 22.8661V7.13389C4.375 6.23641 4.79094 5.37571 5.5313 4.74112ZM8.32287 6.25C8.04937 6.25 7.78708 6.34313 7.5937 6.50888C7.40031 6.67464 7.29167 6.89946 7.29167 7.13389V10.1108H27.7083V7.13389C27.7083 6.89953 27.5997 6.67466 27.4062 6.50883C27.213 6.34317 26.9506 6.25 26.6771 6.25H8.32287ZM27.7083 12.6108H23.3333V23.75H26.6771C26.9506 23.75 27.213 23.6568 27.4063 23.4911C27.5996 23.3254 27.7083 23.1005 27.7083 22.8661V12.6108ZM20.4167 23.75V12.6108H14.5833V23.75H20.4167ZM11.6667 23.75V12.6108H7.29167V22.8661C7.29167 23.1005 7.40036 23.3254 7.59363 23.4911C7.7871 23.6569 8.04945 23.75 8.32287 23.75H11.6667Z" fill="#386641"/>
</g>
</svg>
