<svg width="35" height="35" viewBox="0 0 35 35" fill="none" xmlns="http://www.w3.org/2000/svg">
<g id="vuesax/bulk/wallet-3">
<g id="wallet-3">
<path id="Vector" d="M21.8751 8.96882H8.75008C5.52716 8.96882 2.91675 11.5792 2.91675 14.8022V9.5375C2.91675 6.5625 5.323 4.15625 8.298 4.15625H16.4938C19.4688 4.15625 21.8751 5.99382 21.8751 8.96882Z" fill="#386641"/>
<path id="Vector_2" opacity="0.4" d="M25.4917 17.7916C24.7626 18.5062 24.4126 19.5854 24.7043 20.6791C25.0688 22.0354 26.4105 22.8958 27.8105 22.8958H29.1667V25.0104C29.1667 28.2333 26.5563 30.8438 23.3334 30.8438H8.75008C5.52716 30.8438 2.91675 28.2333 2.91675 25.0104V14.8021C2.91675 11.5792 5.52716 8.96875 8.75008 8.96875H23.3334C26.5417 8.96875 29.1667 11.5938 29.1667 14.8021V16.9166H27.5917C26.7751 16.9166 26.0313 17.2375 25.4917 17.7916Z" fill="#386641"/>
<path id="Vector_3" d="M32.0835 18.4035V21.4077C32.0835 22.2244 31.4126 22.8952 30.5814 22.8952H27.7668C26.1918 22.8952 24.7481 21.7432 24.6168 20.1682C24.5293 19.2494 24.8793 18.389 25.4918 17.7911C26.0314 17.2369 26.7751 16.916 27.5918 16.916H30.5814C31.4126 16.916 32.0835 17.5869 32.0835 18.4035Z" fill="#386641"/>
<g id="Group">
<path id="Vector_4" d="M18.9583 17.3535H10.2083C9.61034 17.3535 9.1145 16.8577 9.1145 16.2598C9.1145 15.6618 9.61034 15.166 10.2083 15.166H18.9583C19.5562 15.166 20.052 15.6618 20.052 16.2598C20.052 16.8577 19.5562 17.3535 18.9583 17.3535Z" fill="#386641"/>
</g>
</g>
</g>
</svg>
